<svg width="16" height="16" viewBox="0 0 16 16" fill="none" xmlns="http://www.w3.org/2000/svg">
<path d="M13 3C13 2.73478 12.8946 2.48043 12.7071 2.29289C12.5196 2.10536 12.2652 2 12 2H10V1H9V2H5V1H4V2H2C1.73478 2 1.48043 2.10536 1.29289 2.29289C1.10536 2.48043 1 2.73478 1 3V13C1 13.2652 1.10536 13.5196 1.29289 13.7071C1.48043 13.8946 1.73478 14 2 14H7V13H2V3H4V4H5V3H9V4H10V3H12V6H13V3Z" fill="black" style="fill:black;fill-opacity:1;"/>
<path d="M8.37714 8.10513V9.31168C8.69118 8.78659 9.13745 8.35306 9.67141 8.05435C10.2054 7.75565 10.8083 7.60221 11.4201 7.60937C12.0319 7.61653 12.6311 7.78403 13.1579 8.09514C13.6848 8.40626 14.1208 8.85012 14.4224 9.38241C14.7241 9.9147 14.8809 10.5168 14.8771 11.1286C14.8734 11.7404 14.7092 12.3406 14.401 12.8691C14.0928 13.3977 13.6514 13.8361 13.1208 14.1407C12.5902 14.4454 11.989 14.6055 11.3771 14.6051V13.6051C11.828 13.6057 12.2706 13.4843 12.6581 13.2539C13.0457 13.0235 13.3636 12.6925 13.5784 12.2961C13.7932 11.8997 13.8968 11.4526 13.8782 11.0021C13.8596 10.5516 13.7196 10.1145 13.4728 9.73716C13.2261 9.35979 12.882 9.05615 12.4768 8.85841C12.0716 8.66067 11.6205 8.57618 11.1712 8.61389C10.7219 8.6516 10.2912 8.81011 9.92467 9.07263C9.55812 9.33515 9.26938 9.69191 9.08904 10.1051H10.3771V11.1051H7.37714V8.10513H8.37714Z" fill="black" style="fill:black;fill-opacity:1;"/>
</svg>
