<svg width="16" height="16" viewBox="0 0 16 16" fill="none" xmlns="http://www.w3.org/2000/svg">
<path fill-rule="evenodd" clip-rule="evenodd" d="M13 2H11V1H10V2H6V1H5V2H3C2.73478 2 2.48043 2.10536 2.29289 2.29289C2.10536 2.48043 2 2.73478 2 3V13C2 13.2652 2.10536 13.5196 2.29289 13.7071C2.48043 13.8946 2.73478 14 3 14H7V13H3V3H5V4H6V3H10V4H11V3H13V7H14V3C14 2.73478 13.8946 2.48043 13.7071 2.29289C13.5196 2.10536 13.2652 2 13 2Z" fill="#15202B"/>
<path d="M11 12.795L9.705 11.5L9 12.205L11 14.205L15 10.205L14.295 9.5L11 12.795Z" fill="#15202B"/>
</svg>
