<svg width="16" height="16" viewBox="0 0 16 16" fill="none" xmlns="http://www.w3.org/2000/svg">
<path d="M14.625 3.37995C14.3463 3.10027 14.0151 2.87836 13.6505 2.72695C13.2858 2.57553 12.8949 2.49759 12.5 2.49759C12.1052 2.49759 11.7142 2.57553 11.3496 2.72695C10.9849 2.87836 10.6537 3.10027 10.375 3.37995L11.085 4.08995C11.2712 3.90381 11.4922 3.75614 11.7354 3.6554C11.9786 3.55466 12.2393 3.50281 12.5025 3.50281C12.7658 3.50281 13.0264 3.55466 13.2697 3.6554C13.5129 3.75614 13.7339 3.90381 13.92 4.08995C14.1062 4.2761 14.2538 4.49709 14.3546 4.74031C14.4553 4.98352 14.5072 5.2442 14.5072 5.50745C14.5072 5.77071 14.4553 6.03138 14.3546 6.2746C14.2538 6.51782 14.1062 6.73881 13.92 6.92495L9.92002 10.925C9.54473 11.3009 9.03548 11.5124 8.50428 11.5128C7.97309 11.5133 7.46346 11.3027 7.08752 10.9275C6.71157 10.5522 6.5001 10.0429 6.49964 9.51172C6.49917 8.98053 6.70973 8.4709 7.08502 8.09495L7.79002 7.38495L7.08502 6.67495L6.37502 7.38495C6.09534 7.66367 5.87343 7.99484 5.72201 8.3595C5.57059 8.72415 5.49265 9.11511 5.49265 9.50995C5.49265 9.9048 5.57059 10.2958 5.72201 10.6604C5.87343 11.0251 6.09534 11.3562 6.37502 11.635C6.94076 12.1935 7.70505 12.5046 8.50002 12.5C8.89637 12.5016 9.28913 12.4247 9.65558 12.2736C10.022 12.1226 10.3549 11.9004 10.635 11.62L14.635 7.61995C15.1955 7.05613 15.5093 6.29289 15.5074 5.49789C15.5055 4.70288 15.1881 3.94113 14.625 3.37995Z" fill="#15202B"/>
<path d="M2.09502 12.41C1.90831 12.2241 1.76016 12.0032 1.65907 11.76C1.55798 11.5167 1.50593 11.2559 1.50593 10.9925C1.50593 10.729 1.55798 10.4682 1.65907 10.2249C1.76016 9.98168 1.90831 9.76079 2.09502 9.57495L6.09502 5.57495C6.28085 5.38825 6.50174 5.2401 6.745 5.13901C6.98826 5.03791 7.24909 4.98587 7.51252 4.98587C7.77594 4.98587 8.03677 5.03791 8.28003 5.13901C8.52329 5.2401 8.74418 5.38825 8.93002 5.57495C9.11554 5.76226 9.26158 5.98489 9.35949 6.22966C9.4574 6.47444 9.50519 6.73637 9.50002 6.99995C9.50154 7.26436 9.45062 7.52644 9.35021 7.77103C9.2498 8.01563 9.10188 8.23789 8.91502 8.42495L7.85502 9.49995L8.56501 10.21L9.62502 9.14995C10.1893 8.58571 10.5063 7.82042 10.5063 7.02245C10.5063 6.22449 10.1893 5.4592 9.62502 4.89495C9.06077 4.33071 8.29548 4.01372 7.49752 4.01372C6.69955 4.01372 5.93426 4.33071 5.37002 4.89495L1.37002 8.89496C1.08958 9.17376 0.867037 9.50525 0.715177 9.87036C0.563316 10.2355 0.485138 10.627 0.485138 11.0225C0.485138 11.4179 0.563316 11.8094 0.715177 12.1745C0.867037 12.5397 1.08958 12.8712 1.37002 13.15C1.93943 13.7042 2.70546 14.0099 3.50002 14C4.30157 14.0007 5.07087 13.6844 5.64002 13.12L4.93002 12.41C4.74418 12.5967 4.52329 12.7448 4.28003 12.8459C4.03677 12.947 3.77594 12.999 3.51252 12.999C3.24909 12.999 2.98826 12.947 2.745 12.8459C2.50174 12.7448 2.28085 12.5967 2.09502 12.41Z" fill="#15202B"/>
</svg>
