<svg width="24" height="24" viewBox="0 0 24 24" fill="none" xmlns="http://www.w3.org/2000/svg">
<path d="M13.2027 20.8338C13.8026 20.7558 14.2765 21.3311 14.0732 21.8903C13.967 22.1738 13.7202 22.3728 13.4139 22.4126C12.7092 22.5015 11.9973 22.5227 11.2884 22.4758C8.67305 22.3031 6.31996 21.1916 4.57679 19.4818C2.67592 17.6174 1.5 15.0416 1.5 12.1969C1.5 9.35192 2.67592 6.77646 4.57679 4.91206C6.47767 3.04765 9.10351 1.8943 12.0042 1.8943C13.0098 1.8943 13.99 2.03626 14.9241 2.30091C15.6905 2.51779 16.4289 2.82024 17.1249 3.20234L16.9178 2.67059C16.7451 2.225 16.9731 1.72649 17.427 1.55662C17.8813 1.38717 18.3895 1.61078 18.5627 2.05637L19.4378 4.30235C19.4709 4.3878 19.49 4.47779 19.4947 4.56905C19.5633 4.98755 19.3077 5.40237 18.8827 5.52874L16.5388 6.232C16.0749 6.36986 15.5851 6.11301 15.4445 5.6584C15.3039 5.20378 15.5658 4.72291 16.0293 4.58505L16.2222 4.5272C15.6666 4.23228 15.0804 3.99678 14.4736 3.82476C13.6967 3.60484 12.8684 3.48667 12.0042 3.48667C9.55195 3.48667 7.33147 4.46155 5.72468 6.03792C4.11747 7.61389 3.12353 9.79135 3.12353 12.1969C3.12353 14.6021 4.11747 16.7796 5.72468 18.356C7.18088 19.7842 9.14074 20.7189 11.3206 20.8814C11.9439 20.9277 12.5852 20.9125 13.2027 20.8338ZM10.3961 8.00655C10.3961 7.56711 10.7597 7.21056 11.2081 7.21056C11.6561 7.21056 12.0197 7.56711 12.0197 8.00655V12.853L15.4018 14.3112C15.8118 14.4881 15.9975 14.9574 15.8172 15.3595C15.6369 15.7612 15.1584 15.9438 14.7484 15.767L10.9224 14.1176C10.6149 14.0039 10.3961 13.713 10.3961 13.372V8.00655ZM16.031 19.9828C15.3776 20.3106 15.4646 21.2506 16.1686 21.457C16.3723 21.5136 16.5752 21.4964 16.7652 21.4033C17.2889 21.1452 17.7917 20.8412 18.2632 20.4998C18.4933 20.3316 18.6129 20.0665 18.5882 19.7863C18.5255 19.1671 17.8068 18.8532 17.296 19.2209C16.8972 19.5097 16.474 19.7646 16.031 19.9828ZM19.3425 17.1292C18.9727 17.6699 19.3881 18.397 20.0524 18.3683C20.3121 18.3547 20.5447 18.23 20.6903 18.0166C21.0191 17.5382 21.3032 17.0373 21.5466 16.5121C21.7813 15.9935 21.4157 15.4125 20.8372 15.3883C20.5054 15.3776 20.2051 15.5594 20.067 15.856C19.8608 16.3012 19.6211 16.7238 19.3425 17.1292ZM20.8342 13.0459C20.8049 13.3585 20.9597 13.6515 21.2354 13.8102C21.7524 14.0983 22.39 13.7758 22.4506 13.196C22.5063 12.6208 22.5151 12.0513 22.4749 11.4748C22.4548 11.1979 22.2917 10.9537 22.0407 10.8245C21.4776 10.5381 20.8104 10.9665 20.8551 11.5864C20.8894 12.0755 20.8815 12.5576 20.8342 13.0459ZM20.1616 8.76314C20.3435 9.17467 20.8317 9.35972 21.2471 9.1718C21.6474 8.99127 21.8269 8.53132 21.6533 8.13415C21.4232 7.60527 21.1463 7.09691 20.8296 6.61275C20.4318 6.01289 19.4956 6.18768 19.3508 6.88971C19.3111 7.09609 19.3487 7.29755 19.4646 7.47521C19.7332 7.88633 19.9666 8.31386 20.1616 8.76314Z" fill="black"/>
</svg>
