<svg width="16" height="16" viewBox="0 0 16 16" fill="none" xmlns="http://www.w3.org/2000/svg">
<path d="M5.50001 9L6.20501 9.705L7.50001 8.415V14.5H8.50001V8.415L9.79501 9.705L10.5 9L8.00001 6.5L5.50001 9Z" fill="#262A30"/>
<path d="M11.75 11H11.5V10H11.75C12.3467 10.0239 12.9285 9.80971 13.3674 9.40463C13.8062 8.99955 14.0661 8.43674 14.09 7.84C14.1139 7.24326 13.8997 6.66148 13.4946 6.22265C13.0896 5.78381 12.5267 5.52387 11.93 5.5H11.5L11.45 5.09C11.3391 4.24822 10.9259 3.47547 10.2876 2.91569C9.64917 2.35591 8.82906 2.04727 7.98001 2.04727C7.13096 2.04727 6.31085 2.35591 5.67246 2.91569C5.03408 3.47547 4.62094 4.24822 4.51001 5.09L4.50001 5.5H4.07001C3.47327 5.52387 2.91046 5.78381 2.50538 6.22265C2.1003 6.66148 1.88614 7.24326 1.91001 7.84C1.93388 8.43674 2.19382 8.99955 2.63266 9.40463C3.07149 9.80971 3.65327 10.0239 4.25001 10H4.50001V11H4.25001C3.44821 10.9949 2.67659 10.6936 2.0835 10.154C1.49041 9.61446 1.11772 8.87468 1.03708 8.07694C0.956432 7.27919 1.17353 6.47979 1.64664 5.83243C2.11974 5.18506 2.81545 4.73544 3.60001 4.57C3.81586 3.56326 4.37043 2.66099 5.17117 2.01373C5.97191 1.36648 6.97039 1.0134 8.00001 1.0134C9.02963 1.0134 10.0281 1.36648 10.8289 2.01373C11.6296 2.66099 12.1842 3.56326 12.4 4.57C13.1846 4.73544 13.8803 5.18506 14.3534 5.83243C14.8265 6.47979 15.0436 7.27919 14.9629 8.07694C14.8823 8.87468 14.5096 9.61446 13.9165 10.154C13.3234 10.6936 12.5518 10.9949 11.75 11Z" fill="#262A30"/>
</svg>
