<svg width="16" height="16" viewBox="0 0 16 16" fill="none" xmlns="http://www.w3.org/2000/svg">
<path d="M11.75 11H11.5V10H11.75C12.3467 10.0239 12.9285 9.80971 13.3674 9.40463C13.8062 8.99955 14.0661 8.43674 14.09 7.84C14.1139 7.24326 13.8997 6.66148 13.4946 6.22265C13.0896 5.78381 12.5267 5.52387 11.93 5.5H11.5L11.45 5.09C11.3391 4.24822 10.9259 3.47547 10.2875 2.91569C9.64916 2.35591 8.82906 2.04727 7.98 2.04727C7.13095 2.04727 6.31084 2.35591 5.67246 2.91569C5.03407 3.47547 4.62093 4.24822 4.51 5.09L4.5 5.5H4.07C3.47326 5.52387 2.91045 5.78381 2.50537 6.22265C2.10029 6.66148 1.88613 7.24326 1.91 7.84C1.93387 8.43674 2.19382 8.99955 2.63265 9.40463C3.07149 9.80971 3.65326 10.0239 4.25 10H4.5V11H4.25C3.4482 10.9949 2.67658 10.6936 2.08349 10.154C1.4904 9.61446 1.11771 8.87468 1.03707 8.07694C0.956424 7.27919 1.17352 6.47979 1.64663 5.83243C2.11973 5.18506 2.81544 4.73544 3.6 4.57C3.81586 3.56326 4.37042 2.66099 5.17116 2.01373C5.9719 1.36648 6.97038 1.0134 8 1.0134C9.02962 1.0134 10.0281 1.36648 10.8288 2.01373C11.6296 2.66099 12.1841 3.56326 12.4 4.57C13.1846 4.73544 13.8803 5.18506 14.3534 5.83243C14.8265 6.47979 15.0436 7.27919 14.9629 8.07694C14.8823 8.87468 14.5096 9.61446 13.9165 10.154C13.3234 10.6936 12.5518 10.9949 11.75 11Z" fill="#15202B"/>
<path d="M8.5 13.085V7H7.5V13.085L6.205 11.795L5.5 12.5L8 15L10.5 12.5L9.795 11.795L8.5 13.085Z" fill="#15202B"/>
</svg>
