<svg width="16" height="16" viewBox="0 0 16 16" fill="none" xmlns="http://www.w3.org/2000/svg">
<path d="M13.5 8.38004C13.5 8.25504 13.5 8.13004 13.5 8.00004C13.5 7.87004 13.5 7.74504 13.5 7.61504L14.46 6.77504C14.637 6.61906 14.7531 6.40555 14.7879 6.17224C14.8226 5.93892 14.7738 5.70083 14.65 5.50004L13.47 3.50004C13.3823 3.34817 13.2562 3.22203 13.1044 3.13427C12.9526 3.04651 12.7804 3.00022 12.605 3.00004C12.4963 2.9992 12.3882 3.01609 12.285 3.05004L11.07 3.46004C10.8602 3.32064 10.6414 3.19536 10.415 3.08504L10.16 1.82504C10.1143 1.59484 9.98904 1.38806 9.80622 1.24089C9.62341 1.09372 9.39465 1.01554 9.16 1.02004H6.82C6.58535 1.01554 6.35659 1.09372 6.17377 1.24089C5.99095 1.38806 5.86572 1.59484 5.82 1.82504L5.565 3.08504C5.33696 3.19534 5.11648 3.32061 4.905 3.46004L3.715 3.03004C3.61065 3.00285 3.50258 2.99272 3.395 3.00004C3.21963 3.00022 3.0474 3.04651 2.89558 3.13427C2.74375 3.22203 2.61768 3.34817 2.53 3.50004L1.35 5.50004C1.23329 5.70053 1.18992 5.93536 1.22732 6.16432C1.26472 6.39327 1.38056 6.6021 1.555 6.75504L2.5 7.62004C2.5 7.74504 2.5 7.87004 2.5 8.00004C2.5 8.13004 2.5 8.25504 2.5 8.38504L1.555 9.22504C1.37563 9.37903 1.25662 9.5916 1.2191 9.82501C1.18157 10.0584 1.22794 10.2976 1.35 10.5L2.53 12.5C2.61768 12.6519 2.74375 12.778 2.89558 12.8658C3.0474 12.9536 3.21963 12.9999 3.395 13C3.50367 13.0009 3.61176 12.984 3.715 12.95L4.93 12.54C5.13977 12.6794 5.35858 12.8047 5.585 12.915L5.84 14.175C5.88572 14.4052 6.01095 14.612 6.19377 14.7592C6.37659 14.9064 6.60535 14.9845 6.84 14.98H9.2C9.43465 14.9845 9.66341 14.9064 9.84622 14.7592C10.029 14.612 10.1543 14.4052 10.2 14.175L10.455 12.915C10.683 12.8047 10.9035 12.6795 11.115 12.54L12.325 12.95C12.4282 12.984 12.5363 13.0009 12.645 13C12.8204 12.9999 12.9926 12.9536 13.1444 12.8658C13.2962 12.778 13.4223 12.6519 13.51 12.5L14.65 10.5C14.7667 10.2995 14.8101 10.0647 14.7727 9.83575C14.7353 9.6068 14.6194 9.39797 14.445 9.24504L13.5 8.38004ZM12.605 12L10.89 11.42C10.4885 11.7601 10.0297 12.0259 9.535 12.205L9.18 14H6.82L6.465 12.225C5.97421 12.0408 5.51786 11.7755 5.115 11.44L3.395 12L2.215 10L3.575 8.80004C3.48255 8.28246 3.48255 7.75261 3.575 7.23504L2.215 6.00004L3.395 4.00004L5.11 4.58004C5.51146 4.23998 5.9703 3.97416 6.465 3.79504L6.82 2.00004H9.18L9.535 3.77504C10.0258 3.95925 10.4821 4.22461 10.885 4.56004L12.605 4.00004L13.785 6.00004L12.425 7.20004C12.5174 7.71761 12.5174 8.24747 12.425 8.76504L13.785 10L12.605 12Z" fill="#15202B"/>
<path d="M8 11C7.40665 11 6.82663 10.8241 6.33329 10.4944C5.83994 10.1648 5.45542 9.69626 5.22836 9.14809C5.0013 8.59991 4.94189 7.99671 5.05764 7.41476C5.1734 6.83282 5.45912 6.29827 5.87868 5.87872C6.29823 5.45916 6.83278 5.17344 7.41473 5.05768C7.99667 4.94192 8.59987 5.00133 9.14805 5.2284C9.69623 5.45546 10.1648 5.83998 10.4944 6.33332C10.824 6.82667 11 7.40669 11 8.00004C11.004 8.39512 10.9291 8.78703 10.7798 9.15281C10.6305 9.5186 10.4096 9.85092 10.1303 10.1303C9.85088 10.4097 9.51856 10.6305 9.15278 10.7798C8.78699 10.9292 8.39508 11.004 8 11ZM8 6.00004C7.73567 5.99388 7.47284 6.0414 7.2274 6.13973C6.98197 6.23806 6.75903 6.38515 6.57207 6.57211C6.38511 6.75907 6.23802 6.98201 6.13969 7.22744C6.04136 7.47288 5.99384 7.73571 6 8.00004C5.99384 8.26436 6.04136 8.52719 6.13969 8.77263C6.23802 9.01806 6.38511 9.241 6.57207 9.42796C6.75903 9.61492 6.98197 9.76201 7.2274 9.86034C7.47284 9.95867 7.73567 10.0062 8 10C8.26432 10.0062 8.52715 9.95867 8.77259 9.86034C9.01802 9.76201 9.24096 9.61492 9.42792 9.42796C9.61488 9.241 9.76197 9.01806 9.8603 8.77263C9.95863 8.52719 10.0062 8.26436 10 8.00004C10.0062 7.73571 9.95863 7.47288 9.8603 7.22744C9.76197 6.98201 9.61488 6.75907 9.42792 6.57211C9.24096 6.38515 9.01802 6.23806 8.77259 6.13973C8.52715 6.0414 8.26432 5.99388 8 6.00004Z" fill="#15202B"/>
</svg>
