<svg width="16" height="16" viewBox="0 0 16 16" fill="none" xmlns="http://www.w3.org/2000/svg">
<path d="M4.99738 7.00258C5.54966 7.00258 5.99738 6.55487 5.99738 6.00258C5.99738 5.4503 5.54966 5.00258 4.99738 5.00258C4.44509 5.00258 3.99738 5.4503 3.99738 6.00258C3.99738 6.55487 4.44509 7.00258 4.99738 7.00258Z" fill="black"/>
<path d="M7.99738 5.50258C8.54966 5.50258 8.99738 5.05487 8.99738 4.50258C8.99738 3.9503 8.54966 3.50258 7.99738 3.50258C7.44509 3.50258 6.99738 3.9503 6.99738 4.50258C6.99738 5.05487 7.44509 5.50258 7.99738 5.50258Z" fill="black"/>
<path d="M10.9974 7.00258C11.5497 7.00258 11.9974 6.55487 11.9974 6.00258C11.9974 5.4503 11.5497 5.00258 10.9974 5.00258C10.4451 5.00258 9.99738 5.4503 9.99738 6.00258C9.99738 6.55487 10.4451 7.00258 10.9974 7.00258Z" fill="black"/>
<path d="M11.4974 10.0026C12.0497 10.0026 12.4974 9.55487 12.4974 9.00258C12.4974 8.4503 12.0497 8.00258 11.4974 8.00258C10.9451 8.00258 10.4974 8.4503 10.4974 9.00258C10.4974 9.55487 10.9451 10.0026 11.4974 10.0026Z" fill="black"/>
<path d="M9.49738 12.5026C10.0497 12.5026 10.4974 12.0549 10.4974 11.5026C10.4974 10.9503 10.0497 10.5026 9.49738 10.5026C8.94509 10.5026 8.49738 10.9503 8.49738 11.5026C8.49738 12.0549 8.94509 12.5026 9.49738 12.5026Z" fill="black"/>
<path d="M8.26738 1.00258C7.32566 0.966234 6.38629 1.12042 5.5056 1.45589C4.62491 1.79136 3.82103 2.30121 3.14215 2.95488C2.46327 3.60854 1.92337 4.39256 1.55483 5.25993C1.18628 6.12731 0.996676 7.06016 0.997377 8.00258C0.997353 8.37325 1.08283 8.73892 1.24715 9.07116C1.41147 9.40341 1.65022 9.69328 1.94482 9.91822C2.23943 10.1432 2.58195 10.2971 2.94574 10.3681C3.30954 10.4391 3.68481 10.4252 4.04238 10.3276L4.60238 10.1726C4.82515 10.1118 5.05895 10.1032 5.28557 10.1476C5.51219 10.192 5.72551 10.288 5.90891 10.4284C6.0923 10.5687 6.24082 10.7495 6.34289 10.9566C6.44496 11.1638 6.49783 11.3917 6.49738 11.6226V13.5026C6.49738 13.9004 6.65541 14.2819 6.93672 14.5632C7.21802 14.8445 7.59955 15.0026 7.99738 15.0026C8.9398 15.0033 9.87266 14.8137 10.74 14.4451C11.6074 14.0766 12.3914 13.5367 13.0451 12.8578C13.6988 12.1789 14.2086 11.375 14.5441 10.4944C14.8795 9.61367 15.0337 8.6743 14.9974 7.73258C14.9248 5.97092 14.1925 4.30095 12.9458 3.05421C11.699 1.80747 10.029 1.07513 8.26738 1.00258ZM12.3224 12.1576C11.7641 12.7421 11.0928 13.2071 10.3493 13.5242C9.60586 13.8414 8.80568 14.0041 7.99738 14.0026C7.86477 14.0026 7.73759 13.9499 7.64382 13.8561C7.55006 13.7624 7.49738 13.6352 7.49738 13.5026V11.6226C7.49738 10.9595 7.23399 10.3237 6.76514 9.85482C6.2963 9.38598 5.66042 9.12258 4.99738 9.12258C4.7727 9.12298 4.54908 9.15325 4.33238 9.21258L3.77238 9.36758C3.56322 9.42364 3.34396 9.43077 3.1316 9.38842C2.91924 9.34606 2.71949 9.25537 2.54783 9.12336C2.37618 8.99136 2.23724 8.82159 2.14178 8.62723C2.04632 8.43287 1.99691 8.21913 1.99738 8.00258C1.99676 7.19448 2.15938 6.39458 2.4755 5.65088C2.79162 4.90717 3.25471 4.23498 3.83699 3.67465C4.41927 3.11431 5.10875 2.67737 5.86404 2.39005C6.61934 2.10272 7.42489 1.97093 8.23238 2.00258C9.73597 2.0809 11.1573 2.71342 12.2219 3.77806C13.2865 4.8427 13.9191 6.26399 13.9974 7.76758C14.0318 8.57557 13.901 9.38208 13.613 10.1378C13.325 10.8935 12.8858 11.5825 12.3224 12.1626V12.1576Z" fill="black"/>
</svg>
