<svg width="16" height="16" viewBox="0 0 16 16" fill="none" xmlns="http://www.w3.org/2000/svg">
<path d="M11.5 10C11.1257 10.0019 10.7567 10.0878 10.42 10.2514C10.0834 10.4149 9.78779 10.652 9.555 10.945L5.9 8.66003C6.03321 8.23011 6.03321 7.76994 5.9 7.34003L9.555 5.05503C9.92597 5.51438 10.4476 5.82761 11.0274 5.93923C11.6072 6.05085 12.2078 5.95364 12.7228 5.66484C13.2378 5.37603 13.6339 4.91427 13.8411 4.36135C14.0482 3.80843 14.053 3.20003 13.8545 2.64394C13.656 2.08785 13.2671 1.61996 12.7567 1.32314C12.2463 1.02633 11.6473 0.919751 11.0658 1.02229C10.4843 1.12484 9.95788 1.42988 9.57978 1.88339C9.20167 2.33689 8.99629 2.90959 9 3.50003C9.00236 3.72362 9.03602 3.94577 9.1 4.16003L5.445 6.44503C5.12232 6.03882 4.68127 5.74305 4.18298 5.59872C3.68468 5.4544 3.15383 5.46866 2.66401 5.63953C2.17418 5.81041 1.74964 6.12943 1.44924 6.55238C1.14884 6.97533 0.987457 7.48125 0.987457 8.00003C0.987457 8.5188 1.14884 9.02473 1.44924 9.44767C1.74964 9.87062 2.17418 10.1896 2.66401 10.3605C3.15383 10.5314 3.68468 10.5457 4.18298 10.4013C4.68127 10.257 5.12232 9.96124 5.445 9.55503L9.1 11.84C9.03602 12.0543 9.00236 12.2764 9 12.5C9 12.9945 9.14662 13.4778 9.42133 13.889C9.69603 14.3001 10.0865 14.6205 10.5433 14.8097C11.0001 14.9989 11.5028 15.0485 11.9877 14.952C12.4727 14.8555 12.9181 14.6174 13.2678 14.2678C13.6174 13.9182 13.8555 13.4727 13.952 12.9878C14.0484 12.5028 13.9989 12.0001 13.8097 11.5433C13.6205 11.0865 13.3 10.6961 12.8889 10.4214C12.4778 10.1466 11.9945 10 11.5 10ZM11.5 2.00003C11.7967 2.00003 12.0867 2.088 12.3334 2.25282C12.58 2.41764 12.7723 2.65191 12.8858 2.926C12.9994 3.20009 13.0291 3.50169 12.9712 3.79266C12.9133 4.08363 12.7704 4.35091 12.5607 4.56069C12.3509 4.77046 12.0836 4.91333 11.7926 4.9712C11.5017 5.02908 11.2001 4.99938 10.926 4.88585C10.6519 4.77231 10.4176 4.58005 10.2528 4.33338C10.088 4.08671 10 3.7967 10 3.50003C10 3.1022 10.158 2.72067 10.4393 2.43937C10.7206 2.15806 11.1022 2.00003 11.5 2.00003ZM3.5 9.50003C3.20333 9.50003 2.91332 9.41205 2.66664 9.24723C2.41997 9.08241 2.22771 8.84814 2.11418 8.57405C2.00065 8.29996 1.97094 7.99836 2.02882 7.70739C2.0867 7.41642 2.22956 7.14914 2.43934 6.93937C2.64912 6.72959 2.91639 6.58673 3.20737 6.52885C3.49834 6.47097 3.79994 6.50067 4.07403 6.61421C4.34811 6.72774 4.58238 6.92 4.7472 7.16667C4.91203 7.41334 5 7.70335 5 8.00003C5 8.39785 4.84197 8.77938 4.56066 9.06069C4.27936 9.34199 3.89783 9.50003 3.5 9.50003ZM11.5 14C11.2033 14 10.9133 13.9121 10.6666 13.7472C10.42 13.5824 10.2277 13.3481 10.1142 13.0741C10.0006 12.8 9.97094 12.4984 10.0288 12.2074C10.0867 11.9164 10.2296 11.6491 10.4393 11.4394C10.6491 11.2296 10.9164 11.0867 11.2074 11.0288C11.4983 10.971 11.7999 11.0007 12.074 11.1142C12.3481 11.2277 12.5824 11.42 12.7472 11.6667C12.912 11.9133 13 12.2034 13 12.5C13 12.8979 12.842 13.2794 12.5607 13.5607C12.2794 13.842 11.8978 14 11.5 14Z" fill="#15202B"/>
</svg>
