<svg width="16" height="16" viewBox="0 0 16 16" fill="none" xmlns="http://www.w3.org/2000/svg">
<path d="M5 2V3.5H11V2H15V6H11V4.5H7.4883C7.81879 4.93033 7.9986 5.45741 8 6V10C8.00049 10.3977 8.15868 10.7789 8.43988 11.0601C8.72108 11.3413 9.10233 11.4995 9.5 11.5H11V10H15V14H11V12.5H9.5C8.83721 12.4992 8.2018 12.2355 7.73314 11.7669C7.26448 11.2982 7.00082 10.6628 7 10V6C7.00012 5.80311 6.96145 5.60812 6.8862 5.42617C6.81095 5.24422 6.70059 5.07888 6.56144 4.93959C6.42228 4.8003 6.25704 4.68978 6.07517 4.61436C5.8933 4.53893 5.69834 4.50007 5.50145 4.5H5V6H1V2H5ZM12 5H14V3H12V5ZM12 13H14V11H12V13ZM2 5H4V3H2V5Z" fill="#262A30"/>
</svg>
