<svg width="16" height="16" viewBox="0 0 16 16" fill="none" xmlns="http://www.w3.org/2000/svg">
<path fill-rule="evenodd" clip-rule="evenodd" d="M2 12H7V13H2C1.73489 12.9997 1.48073 12.8942 1.29327 12.7067C1.10581 12.5193 1.00034 12.2651 1 12V3.99825C1.00046 3.73334 1.10603 3.47943 1.29351 3.29227C1.481 3.10512 1.73509 3 2 3H14C14.2651 3.00033 14.5193 3.10579 14.7067 3.29326C14.8942 3.48072 14.9997 3.73489 15 4V10H14V4.4543L8.28465 8.41115C8.201 8.46901 8.10171 8.5 8 8.5C7.89829 8.5 7.799 8.46901 7.71535 8.41115L1.9983 4.4532L2 12ZM8 7.39185L12.8993 4H3.1007L8 7.39185Z" fill="black"/>
<path d="M9.25 13C9.66421 13 10 12.6642 10 12.25C10 11.8358 9.66421 11.5 9.25 11.5C8.83579 11.5 8.5 11.8358 8.5 12.25C8.5 12.6642 8.83579 13 9.25 13Z" fill="black"/>
<path d="M11.75 13C12.1642 13 12.5 12.6642 12.5 12.25C12.5 11.8358 12.1642 11.5 11.75 11.5C11.3358 11.5 11 11.8358 11 12.25C11 12.6642 11.3358 13 11.75 13Z" fill="black"/>
<path d="M15 12.25C15 12.6642 14.6642 13 14.25 13C13.8358 13 13.5 12.6642 13.5 12.25C13.5 11.8358 13.8358 11.5 14.25 11.5C14.6642 11.5 15 11.8358 15 12.25Z" fill="black"/>
</svg>
