<svg width="16" height="16" viewBox="0 0 16 16" fill="none" xmlns="http://www.w3.org/2000/svg">
<path d="M8 15L4.9121 13.3535C4.03174 12.8852 3.29552 12.186 2.78248 11.3309C2.26944 10.4758 1.99893 9.49718 2 8.5V2C2.00028 1.73487 2.10573 1.48068 2.2932 1.2932C2.48068 1.10572 2.73487 1.00028 3 1H13C13.2651 1.00028 13.5193 1.10572 13.7068 1.2932C13.8943 1.48068 13.9997 1.73487 14 2V8.5C14.0011 9.49718 13.7306 10.4758 13.2175 11.3309C12.7045 12.186 11.9683 12.8852 11.0879 13.3535L8 15ZM3 2V8.5C2.99914 9.3159 3.22048 10.1166 3.64028 10.8163C4.06007 11.5159 4.66246 12.088 5.3828 12.4712L8 13.8666L10.6172 12.4712C11.3375 12.088 11.9399 11.5159 12.3597 10.8163C12.7795 10.1166 13.0009 9.3159 13 8.5V2H3Z" fill="#15202B"/>
<path d="M8 9.5C7.85166 9.5 7.70666 9.54399 7.58332 9.6264C7.45999 9.70881 7.36386 9.82594 7.30709 9.96299C7.25032 10.1 7.23547 10.2508 7.26441 10.3963C7.29335 10.5418 7.36478 10.6754 7.46967 10.7803C7.57456 10.8852 7.7082 10.9567 7.85368 10.9856C7.99917 11.0145 8.14997 10.9997 8.28701 10.9429C8.42406 10.8861 8.54119 10.79 8.6236 10.6667C8.70601 10.5433 8.75 10.3983 8.75 10.25C8.75 10.0511 8.67098 9.86032 8.53033 9.71967C8.38968 9.57902 8.19891 9.5 8 9.5Z" fill="#15202B"/>
<path d="M8.5 4H7.5V8.5H8.5V4Z" fill="#15202B"/>
</svg>
