<svg width="16" height="16" viewBox="0 0 16 16" fill="none" xmlns="http://www.w3.org/2000/svg">
<path d="M2 2C1.73478 2 1.48043 2.10536 1.29289 2.29289C1.10536 2.48043 1 2.73478 1 3V4.58545C0.999989 4.7168 1.02585 4.84687 1.07612 4.96822C1.12638 5.08957 1.20006 5.19983 1.29295 5.2927L5 9V13C5 13.2652 5.10536 13.5196 5.29289 13.7071C5.48043 13.8946 5.73478 14 6 14H8C8.26522 14 8.51957 13.8946 8.70711 13.7071C8.89464 13.5196 9 13.2652 9 13V12H8V13H6V8.58545L2 4.58545V3H12V4H13V3C13 2.73478 12.8946 2.48043 12.7071 2.29289C12.5196 2.10536 12.2652 2 12 2H2Z" fill="black"/>
<path d="M11.2998 4.2998C13.5089 4.2998 15.2997 6.09078 15.2998 8.2998C15.2998 10.5089 13.5089 12.2998 11.2998 12.2998C9.09067 12.2998 7.2998 10.5089 7.2998 8.2998C7.29994 6.09078 9.09075 4.2998 11.2998 4.2998ZM11.2998 5.2998C9.64303 5.2998 8.29994 6.64306 8.2998 8.2998C8.2998 9.95666 9.64295 11.2998 11.2998 11.2998C12.9567 11.2998 14.2998 9.95666 14.2998 8.2998C14.2997 6.64306 12.9566 5.2998 11.2998 5.2998Z" fill="black"/>
<path d="M11.7998 6.30005V7.80005H13.2998V8.80005H11.7998V10.3H10.7998V8.80005H9.2998V7.80005H10.7998V6.30005H11.7998Z" fill="black"/>
</svg>
