<svg width="16" height="16" viewBox="0 0 16 16" fill="none" xmlns="http://www.w3.org/2000/svg">
<path fill-rule="evenodd" clip-rule="evenodd" d="M6 10.7142L1.7135 15.0007L1.0064 14.2936L14.3 1.00002L15.0071 1.70713L13.9674 2.74682C13.9889 2.82879 14 2.91382 14 3V4.795C13.9989 5.05979 13.8928 5.31332 13.705 5.5L10 9.205V13C10 13.2652 9.89464 13.5196 9.70711 13.7071C9.51957 13.8946 9.26522 14 9 14H7C6.73478 14 6.48043 13.8946 6.29289 13.7071C6.10536 13.5196 6 13.2652 6 13V10.7142ZM7 9.71424V13H9V8.795L13 4.795V3.71424L7 9.71424ZM2.295 5.5L3.8975 7.1025L4.6025 6.3975L3 4.795V3H10.8936L11.8936 2H3C2.73478 2 2.48043 2.10536 2.29289 2.29289C2.10536 2.48043 2 2.73478 2 3V4.795C2.00112 5.05979 2.10721 5.31332 2.295 5.5Z" fill="#262A30"/>
</svg>
