<svg width="16" height="16" viewBox="0 0 16 16" fill="none" xmlns="http://www.w3.org/2000/svg">
<path fill-rule="evenodd" clip-rule="evenodd" d="M1.11645 15.7088L1.83541 14.9864C1.88946 14.9954 1.9445 15 2.00001 15H15V14H13.5V3.2646L14.999 1.75827L14.2936 1.04944L0.411072 15L1.11645 15.7088ZM10.5 6.2793L12.5 4.2695V14H10.5V6.2793ZM7.50001 9.294L9.50001 7.2842V14H7.50001V9.294ZM4.50001 12.3087L6.50001 10.2989V14H4.50001V12.3087ZM3.50001 14V13.3136L2.81696 14H3.50001ZM3.50001 10.5514L4.50001 9.54655V8H6.03902L7.03415 7H3.50001V10.5514ZM2.00001 12.0588L1.00001 13.0637V1H2.00001V12.0588Z" fill="#262A30"/>
</svg>
