<svg width="16" height="16" viewBox="0 0 16 16" fill="none" xmlns="http://www.w3.org/2000/svg">
<path d="M15 12.5L14.293 11.793L13 13.086V9.00001H12V13.086L10.707 11.793L10 12.5L12.5 15L15 12.5Z" fill="#15202B"/>
<path d="M9 14H4V2.00001H8V5.00001C8.00077 5.26499 8.10637 5.5189 8.29374 5.70627C8.48111 5.89364 8.73502 5.99925 9 6.00001H12V7.50001H13V5.00001C13.0018 4.9343 12.9893 4.86897 12.9634 4.80855C12.9375 4.74812 12.8988 4.69404 12.85 4.65001L9.35 1.15001C9.30599 1.10118 9.2519 1.06247 9.19147 1.03658C9.13104 1.01068 9.06572 0.998204 9 1.00001H4C3.73502 1.00078 3.48111 1.10638 3.29374 1.29375C3.10637 1.48112 3.00077 1.73503 3 2.00001V14C3.00077 14.265 3.10637 14.5189 3.29374 14.7063C3.48111 14.8936 3.73502 14.9992 4 15H9V14ZM9 2.20001L11.8 5.00001H9V2.20001Z" fill="#15202B"/>
</svg>
