<svg width="16" height="16" viewBox="0 0 16 16" fill="none" xmlns="http://www.w3.org/2000/svg">
<path d="M15.915 6.6831L15.415 5.8169L14 6.63405V5H13V6.6338L11.585 5.8169L11.085 6.6831L12.5 7.5L11.085 8.3169L11.585 9.1831L13 8.3662V10H14V8.36595L15.415 9.1831L15.915 8.3169L14.5 7.5L15.915 6.6831Z" fill="#262A30"/>
<path d="M11 15H10V12.5C9.99835 11.12 8.88005 10.0016 7.5 10H4.5C3.11995 10.0016 2.00165 11.12 2 12.5V15H1V12.5C1.00225 10.568 2.56795 9.00225 4.5 9H7.5C9.43205 9.00225 10.9978 10.568 11 12.5V15Z" fill="#262A30"/>
<path d="M6 2C7.3807 2 8.5 3.1193 8.5 4.5C8.5 5.8807 7.3807 7 6 7C4.6193 7 3.5 5.8807 3.5 4.5C3.50155 3.11995 4.61995 2.00155 6 2ZM6 1C4.067 1 2.5 2.567 2.5 4.5C2.5 6.433 4.067 8 6 8C7.933 8 9.5 6.433 9.5 4.5C9.5 2.567 7.933 1 6 1Z" fill="#262A30"/>
</svg>
