<svg width="16" height="16" viewBox="0 0 16 16" fill="none" xmlns="http://www.w3.org/2000/svg">
<path d="M5.5 10C6.16279 10.0008 6.79793 10.2647 7.2666 10.7334C7.73526 11.2021 7.9992 11.8372 8 12.5V15H7V12.5C6.99955 12.1023 6.84174 11.7206 6.56055 11.4395C6.27934 11.1583 5.89768 11.0004 5.5 11H3.5C3.10232 11.0004 2.72066 11.1583 2.43945 11.4395C2.15826 11.7206 2.00045 12.1023 2 12.5V15H1V12.5C1.0008 11.8372 1.26474 11.2021 1.7334 10.7334C2.20207 10.2647 2.83721 10.0008 3.5 10H5.5Z" fill="black" style="fill:black;fill-opacity:1;"/>
<path fill-rule="evenodd" clip-rule="evenodd" d="M4.5 4C4.8283 4 5.15372 4.06479 5.45703 4.19043C5.76021 4.31606 6.03551 4.50037 6.26758 4.73242C6.49963 4.96447 6.68394 5.2398 6.80957 5.54297C6.9352 5.84626 6.99999 6.17172 7 6.5C7 6.99429 6.85363 7.47764 6.5791 7.88867C6.30447 8.29969 5.9137 8.62033 5.45703 8.80957C5.00035 8.99873 4.49752 9.0485 4.0127 8.95215C3.52774 8.85569 3.08205 8.61721 2.73242 8.26758C2.38281 7.91795 2.14431 7.47224 2.04785 6.9873C1.95152 6.50251 2.00128 5.99963 2.19043 5.54297C2.37966 5.08633 2.70034 4.6965 3.11133 4.42188C3.52245 4.14717 4.00555 4 4.5 4ZM4.5 5C4.10219 5 3.72075 5.15817 3.43945 5.43945C3.15816 5.72074 3.00002 6.1022 3 6.5C3 6.79658 3.0882 7.08638 3.25293 7.33301C3.41771 7.57962 3.65178 7.7722 3.92578 7.88574C4.19987 7.99927 4.502 8.02956 4.79297 7.97168C5.08385 7.91377 5.35082 7.77027 5.56055 7.56055C5.77022 7.35086 5.91278 7.08379 5.9707 6.79297C6.02858 6.502 5.99927 6.19987 5.88574 5.92578C5.7722 5.6518 5.57961 5.4177 5.33301 5.25293C5.08638 5.0882 4.79659 5 4.5 5Z" fill="black" style="fill:black;fill-opacity:1;"/>
<path d="M14.6572 1.70703L12.5352 3.82812L14.6572 5.9502L13.9502 6.65723L11.8281 4.53516L9.70703 6.65723L9 5.9502L11.1211 3.82812L9 1.70703L9.70703 1L11.8281 3.12109L13.9502 1L14.6572 1.70703Z" fill="black" style="fill:black;fill-opacity:1;"/>
</svg>
