<svg width="16" height="16" viewBox="0 0 16 16" fill="none" xmlns="http://www.w3.org/2000/svg">
<path d="M5.5 9.99994C6.16279 10.0007 6.79793 10.2647 7.2666 10.7333C7.73526 11.202 7.9992 11.8372 8 12.4999V14.9999H7V12.4999C6.99955 12.1023 6.84174 11.7206 6.56055 11.4394C6.27934 11.1582 5.89768 11.0004 5.5 10.9999H3.5C3.10232 11.0004 2.72066 11.1582 2.43945 11.4394C2.15826 11.7206 2.00045 12.1023 2 12.4999V14.9999H1V12.4999C1.0008 11.8372 1.26474 11.202 1.7334 10.7333C2.20207 10.2647 2.83721 10.0007 3.5 9.99994H5.5Z" fill="black" style="fill:black;fill-opacity:1;"/>
<path fill-rule="evenodd" clip-rule="evenodd" d="M4.5 3.99994C4.8283 3.99994 5.15372 4.06473 5.45703 4.19037C5.76021 4.316 6.03551 4.50031 6.26758 4.73236C6.49963 4.96441 6.68394 5.23974 6.80957 5.54291C6.9352 5.84621 6.99999 6.17165 7 6.49994C7 6.99423 6.85363 7.47758 6.5791 7.88861C6.30447 8.29963 5.9137 8.62027 5.45703 8.80951C5.00035 8.99867 4.49751 9.04844 4.0127 8.95209C3.52774 8.85563 3.08205 8.61715 2.73242 8.26752C2.38281 7.91789 2.14431 7.47218 2.04785 6.98724C1.95152 6.50244 2.00127 5.99957 2.19043 5.54291C2.37967 5.08625 2.70032 4.69547 3.11133 4.42084C3.52236 4.14631 4.00571 3.99994 4.5 3.99994ZM4.5 4.99994C4.10219 4.99994 3.72076 5.15811 3.43945 5.43939C3.15816 5.72068 3.00001 6.10214 3 6.49994C3 6.79652 3.0882 7.08632 3.25293 7.33295C3.41771 7.57956 3.65178 7.77214 3.92578 7.88568C4.19987 7.99921 4.502 8.0295 4.79297 7.97162C5.08385 7.91371 5.35082 7.77021 5.56055 7.56049C5.77022 7.3508 5.91278 7.08373 5.9707 6.79291C6.02858 6.50194 5.99927 6.19981 5.88574 5.92572C5.7722 5.65174 5.57961 5.41764 5.33301 5.25287C5.08638 5.08814 4.79659 4.99994 4.5 4.99994Z" fill="black" style="fill:black;fill-opacity:1;"/>
<path d="M12 4.29486L13 5.29486L12.2949 5.99994L11 4.70502V2.49994H12V4.29486Z" fill="black" style="fill:black;fill-opacity:1;"/>
<path fill-rule="evenodd" clip-rule="evenodd" d="M10.7197 0.577088C11.4955 0.422777 12.2995 0.50199 13.0303 0.804627C13.7611 1.10736 14.3867 1.61955 14.8262 2.27728C15.2657 2.93508 15.5 3.70881 15.5 4.49994C15.5 5.56081 15.0783 6.57792 14.3281 7.32806C13.578 8.07821 12.5609 8.49994 11.5 8.49994C10.7089 8.49994 9.93514 8.26564 9.27734 7.82611C8.61961 7.38659 8.10742 6.76107 7.80469 6.03021C7.50205 5.2994 7.42284 4.49547 7.57715 3.71967C7.73149 2.94374 8.11247 2.23122 8.67188 1.67181C9.23129 1.1124 9.9438 0.731429 10.7197 0.577088ZM11.5 1.49994C10.9067 1.49994 10.3264 1.67616 9.83301 2.0058C9.33993 2.33536 8.95555 2.80361 8.72852 3.3515C8.50149 3.89959 8.44194 4.50305 8.55762 5.0849C8.67337 5.66684 8.95935 6.20148 9.37891 6.62103C9.79846 7.04059 10.3331 7.32657 10.915 7.44232C11.4969 7.558 12.1004 7.49845 12.6484 7.27142C13.1963 7.04439 13.6646 6.66001 13.9941 6.16693C14.3238 5.67358 14.5 5.09328 14.5 4.49994C14.5 3.70429 14.1837 2.94146 13.6211 2.37885C13.0585 1.81624 12.2956 1.49994 11.5 1.49994Z" fill="black" style="fill:black;fill-opacity:1;"/>
</svg>
