<svg width="16" height="16" viewBox="0 0 16 16" fill="none" xmlns="http://www.w3.org/2000/svg">
<path d="M15 5.34005L14 2.34005C13.9652 2.23656 13.8975 2.1473 13.8072 2.08591C13.7169 2.02452 13.609 1.99436 13.5 2.00005H2.5C2.39096 1.99436 2.28307 2.02452 2.19278 2.08591C2.1025 2.1473 2.03479 2.23656 2 2.34005L0.999997 5.34005C0.992794 5.39314 0.992794 5.44696 0.999997 5.50005V8.50005C0.999997 8.63266 1.05268 8.75984 1.14644 8.85361C1.24021 8.94737 1.36739 9.00005 1.5 9.00005H2V14.0001H3V9.00005H6V14.0001H14V9.00005H14.5C14.6326 9.00005 14.7598 8.94737 14.8536 8.85361C14.9473 8.75984 15 8.63266 15 8.50005V5.50005C15.0072 5.44696 15.0072 5.39314 15 5.34005ZM13 13.0001H7V9.00005H13V13.0001ZM14 8.00005H12V6.00005H11V8.00005H8.5V6.00005H7.5V8.00005H5V6.00005H4V8.00005H2V5.58005L2.86 3.00005H13.14L14 5.58005V8.00005Z" fill="#15202B"/>
</svg>
