<svg width="16" height="16" viewBox="0 0 16 16" fill="none" xmlns="http://www.w3.org/2000/svg">
<path fill-rule="evenodd" clip-rule="evenodd" d="M9 3H1V4H9V3ZM8.35425 6H3V7H7.5359C7.31841 7.37672 7.16264 7.78842 7.07686 8.21964C7.0255 8.47787 7 8.73924 7 9H5V10H7.12701C7.17352 10.1801 7.23272 10.3575 7.30448 10.5307C7.60723 11.2616 8.11992 11.8864 8.77772 12.3259C9.43552 12.7654 10.2089 13 11 13C12.0609 13 13.0783 12.5786 13.8284 11.8284C14.5786 11.0783 15 10.0609 15 9C15 8.20888 14.7654 7.43552 14.3259 6.77772C13.8864 6.11992 13.2616 5.60723 12.5307 5.30448C11.7998 5.00173 10.9956 4.92252 10.2196 5.07686C9.52584 5.21487 8.88257 5.53406 8.35425 6ZM9.33329 6.50559C9.82664 6.17595 10.4067 6 11 6C11.7957 6 12.5587 6.31607 13.1213 6.87868C13.6839 7.44129 14 8.20435 14 9C14 9.59335 13.8241 10.1734 13.4944 10.6667C13.1648 11.1601 12.6962 11.5446 12.1481 11.7716C11.5999 11.9987 10.9967 12.0581 10.4147 11.9424C9.83279 11.8266 9.29824 11.5409 8.87868 11.1213C8.45912 10.7018 8.1734 10.1672 8.05765 9.58527C7.94189 9.00333 8.0013 8.40013 8.22836 7.85195C8.45543 7.30377 8.83994 6.83524 9.33329 6.50559ZM10.5 9.205L11.795 10.5L12.5 9.795L11.5 8.795V7H10.5V9.205Z" fill="#15202B"/>
</svg>
